<!DOCTYPE svg PUBLIC "-//W3C//DTD SVG 1.1//EN" "http://www.w3.org/Graphics/SVG/1.1/DTD/svg11.dtd">
<svg xmlns="http://www.w3.org/2000/svg" xmlns:xlink="http://www.w3.org/1999/xlink" version="1.1" width="575px" height="393px" viewBox="-0.5 -0.5 575 393"><defs><linearGradient x1="0%" y1="0%" x2="100%" y2="0%" id="mx-gradient-f19c99-1-ffffff-1-e-0"><stop offset="0%" style="stop-color:#F19C99"/><stop offset="100%" style="stop-color:#ffffff"/></linearGradient></defs><g><path d="M 40 287 L 40 13.37" fill="none" stroke="#000000" stroke-miterlimit="10" pointer-events="none"/><path d="M 40 8.12 L 43.5 15.12 L 40 13.37 L 36.5 15.12 Z" fill="#000000" stroke="#000000" stroke-miterlimit="10" pointer-events="none"/><path d="M 40 287 L 553.63 287" fill="none" stroke="#000000" stroke-miterlimit="10" pointer-events="none"/><path d="M 558.88 287 L 551.88 290.5 L 553.63 287 L 551.88 283.5 Z" fill="#000000" stroke="#000000" stroke-miterlimit="10" pointer-events="none"/><rect x="40" y="87" width="160" height="200" fill="#d5e8d4" stroke="#000000" pointer-events="none"/><g fill="#000000" font-family="Helvetica" text-anchor="middle" font-size="12px"><text x="119.5" y="162.5">ohne Scoring</text><text x="119.5" y="190.5">alle im Shop </text><text x="119.5" y="204.5">verfügbaren </text><text x="119.5" y="218.5">Zahlungsarten 1)</text></g><rect x="200" y="127" width="160" height="160" fill="#ffe599" stroke="#000000" pointer-events="none"/><g fill="#000000" font-family="Helvetica" text-anchor="middle" font-size="12px"><text x="279.5" y="189.5">durch Score und </text><text x="279.5" y="203.5">Entscheidungsmatrix </text><text x="279.5" y="217.5">eingeschränkte </text><text x="279.5" y="231.5">Zahlungsarten</text></g><rect x="360" y="167" width="160" height="120" fill="url(#mx-gradient-f19c99-1-ffffff-1-e-0)" stroke="#000000" pointer-events="none"/><g fill="#000000" font-family="Helvetica" text-anchor="middle" font-size="12px"><text x="439.5" y="223.5">ausschließlich sichere </text><text x="439.5" y="237.5">Zahlungsarten</text></g><g fill="#000000" font-family="Helvetica" text-anchor="middle" font-size="12px"><text x="292.5" y="330.5">Warenkorbwert</text></g><g fill="#000000" font-family="Helvetica" text-anchor="middle" font-size="12px" transform="rotate(-90,10,127)"><text x="9.5" y="130.5">Anzahl Zahlungsarten</text></g><path d="M 206 27 L 203 27 Q 200 27 200 37 L 200 80.63" fill="none" stroke="#000000" stroke-miterlimit="10" pointer-events="none"/><path d="M 200 85.88 L 196.5 78.88 L 200 80.63 L 203.5 78.88 Z" fill="#000000" stroke="#000000" stroke-miterlimit="10" pointer-events="none"/><path d="M 380 70 L 370 70 Q 360 70 360 80 L 360 120.63" fill="none" stroke="#000000" stroke-miterlimit="10" pointer-events="none"/><path d="M 360 125.88 L 356.5 118.88 L 360 120.63 L 363.5 118.88 Z" fill="#000000" stroke="#000000" stroke-miterlimit="10" pointer-events="none"/><g fill="#000000" font-family="Helvetica" text-anchor="middle" font-size="12px"><text x="29.5" y="310.5">0</text></g><g fill="#000000" font-family="Helvetica" text-anchor="middle" font-size="12px"><text x="119.5" y="310.5">1</text></g><g fill="#000000" font-family="Helvetica" text-anchor="middle" font-size="12px"><text x="199.5" y="310.5">2</text></g><g fill="#000000" font-family="Helvetica" text-anchor="middle" font-size="12px"><text x="359.5" y="310.5">4</text></g><g fill="#000000" font-family="Helvetica" text-anchor="middle" font-size="12px"><text x="279.5" y="310.5">3</text></g><g fill="#000000" font-family="Helvetica" text-anchor="middle" font-size="12px"><text x="439.5" y="310.5">5</text></g><g fill="#666666" font-family="Helvetica" font-size="12px"><text x="41.5" y="373.5">1) ob der Warenkorbwert ohne Scoreabfrage in Ihrer Installation konfigurierbar ist, </text><text x="41.5" y="387.5">hängt von dergenutzten Modullizenz ab. Lassen Sie diese ggf. erweitern.</text></g><g fill="#000000" font-family="Helvetica" font-size="12px"><text x="392.5" y="72.5">Einstellung "Kreditlimit" </text><text x="392.5" y="86.5">(kundenindividuell, sonst aus </text><text x="392.5" y="100.5">Entscheidungsmatrix)</text></g><g fill="#000000" font-family="Helvetica" font-size="12px"><text x="210" y="29.5">Einstellung "Score erst ab definiertem Warenkorbwert abfragen" </text><text x="210" y="43.5">(kundenindividuell, sonst aus globaler Einstellung) 1)</text></g><path d="M 200 286 L 199 87" fill="none" stroke="#000000" stroke-width="3" stroke-miterlimit="10" pointer-events="none"/><path d="M 360 286 L 360 126" fill="none" stroke="#000000" stroke-width="3" stroke-miterlimit="10" pointer-events="none"/></g></svg>